<?xml version="1.0" encoding="UTF-8"?>
<svg xmlns="http://www.w3.org/2000/svg" viewBox="0 0 64 64">
  <rect width="64" height="64" rx="12" ry="12" fill="#0d6efd"/>
  <circle cx="24" cy="24" r="10" fill="#ffd54f"/>
  <g stroke="#ffd54f" stroke-width="2" stroke-linecap="round">
    <line x1="24" y1="6" x2="24" y2="12"/>
    <line x1="24" y1="36" x2="24" y2="42"/>
    <line x1="6" y1="24" x2="12" y2="24"/>
    <line x1="36" y1="24" x2="42" y2="24"/>
    <line x1="12.7" y1="12.7" x2="17" y2="17"/>
    <line x1="31" y1="31" x2="35.3" y2="35.3"/>
    <line x1="12.7" y1="35.3" x2="17" y2="31"/>
    <line x1="31" y1="17" x2="35.3" y2="12.7"/>
  </g>
  <path d="M44 44a10 10 0 1 0-2.3-19.7 12 12 0 0 0-20.9 7.4c0 .4 0 .9.1 1.3" fill="none" stroke="#e3f2fd" stroke-width="4" stroke-linecap="round" stroke-linejoin="round"/>
</svg>
